<svg width="192" height="24" viewBox="0 0 192 24" fill="none" xmlns="http://www.w3.org/2000/svg">
<path d="M10.8333 0L7.48472 7.90286L0 9.16286L5.41667 15.3171L4.1361 24L10.8333 19.9029L17.5306 24L16.25 15.3171L21.6667 9.17143L14.182 7.90286L10.8333 0Z" fill="#D1A954"/>
<path d="M53.3333 0L49.9847 7.90286L42.5 9.16286L47.9167 15.3171L46.6361 24L53.3333 19.9029L60.0306 24L58.75 15.3171L64.1667 9.17143L56.682 7.90286L53.3333 0Z" fill="#D1A954"/>
<path d="M95.8333 0L92.4847 7.90286L85 9.16286L90.4167 15.3171L89.1361 24L95.8333 19.9029L102.531 24L101.25 15.3171L106.667 9.17143L99.182 7.90286L95.8333 0Z" fill="#D1A954"/>
<path d="M138.333 0L134.985 7.90286L127.5 9.16286L132.917 15.3171L131.636 24L138.333 19.9029L145.031 24L143.75 15.3171L149.167 9.17143L141.682 7.90286L138.333 0Z" fill="#D1A954"/>
<path d="M180.833 0L177.485 7.90286L170 9.16286L175.417 15.3171L174.136 24L180.833 19.9029L187.531 24L186.25 15.3171L191.667 9.17143L184.182 7.90286L180.833 0Z" fill="#D1A954"/>
</svg>
